<!DOCTYPE svg PUBLIC "-//W3C//DTD SVG 1.1//EN" "http://www.w3.org/Graphics/SVG/1.1/DTD/svg11.dtd">
<!-- Uploaded to: SVG Repo, www.svgrepo.com, Transformed by: SVG Repo Mixer Tools -->
<svg fill="#000000" width="800px" height="800px" viewBox="-2.4 -2.4 28.80 28.80" id="delivery-truck" data-name="Line Color" xmlns="http://www.w3.org/2000/svg" class="icon line-color">
<g id="SVGRepo_bgCarrier" stroke-width="0">
<path transform="translate(-2.4, -2.4), scale(1.7999999999999998)" fill="#EEEDEB" d="M9.166.33a2.25 2.25 0 00-2.332 0l-5.25 3.182A2.25 2.25 0 00.5 5.436v5.128a2.25 2.25 0 001.084 1.924l5.25 3.182a2.25 2.25 0 002.332 0l5.25-3.182a2.25 2.25 0 001.084-1.924V5.436a2.25 2.25 0 00-1.084-1.924L9.166.33z" strokewidth="0"/>
</g>
<g id="SVGRepo_tracerCarrier" stroke-linecap="round" stroke-linejoin="round"/>
<g id="SVGRepo_iconCarrier">
<path id="primary" d="M9.17,17H13V6a1,1,0,0,0-1-1H5" style="fill: none; stroke: #2F3645; stroke-linecap: round; stroke-linejoin: round; stroke-width: 2;"/>
<path id="primary-2" data-name="primary" d="M3,13v3a1,1,0,0,0,1,1h.87" style="fill: none; stroke: #2F3645; stroke-linecap: round; stroke-linejoin: round; stroke-width: 2;"/>
<path id="primary-3" data-name="primary" d="M14.87,17H13V7h4.25a1,1,0,0,1,1,.73L19,10.5l1.24.31a1,1,0,0,1,.76,1V16a1,1,0,0,1-1,1h-.89" style="fill: none; stroke: #2F3645; stroke-linecap: round; stroke-linejoin: round; stroke-width: 2;"/>
<path id="secondary" d="M7,15a2,2,0,1,0,2,2A2,2,0,0,0,7,15Zm10,0a2,2,0,1,0,2,2A2,2,0,0,0,17,15ZM3,9H9" style="fill: none; stroke: #F4CE14; stroke-linecap: round; stroke-linejoin: round; stroke-width: 2;"/>
</g>
</svg>