<!DOCTYPE svg PUBLIC "-//W3C//DTD SVG 1.1//EN" "http://www.w3.org/Graphics/SVG/1.1/DTD/svg11.dtd">
<!-- Uploaded to: SVG Repo, www.svgrepo.com, Transformed by: SVG Repo Mixer Tools -->
<svg width="800px" height="800px" viewBox="-6.4 -6.4 76.80 76.80" xmlns="http://www.w3.org/2000/svg" fill="#000000">
<g id="SVGRepo_bgCarrier" stroke-width="0">
<path transform="translate(-6.4, -6.4), scale(4.8)" fill="#EEEDEB" d="M9.166.33a2.25 2.25 0 00-2.332 0l-5.25 3.182A2.25 2.25 0 00.5 5.436v5.128a2.25 2.25 0 001.084 1.924l5.25 3.182a2.25 2.25 0 002.332 0l5.25-3.182a2.25 2.25 0 001.084-1.924V5.436a2.25 2.25 0 00-1.084-1.924L9.166.33z" strokewidth="0"/>
</g>
<g id="SVGRepo_tracerCarrier" stroke-linecap="round" stroke-linejoin="round"/>
<g id="SVGRepo_iconCarrier"> <g id="Flat"> <g id="Color"> <circle cx="32" cy="45.5" fill="#F4CE14" r="15.5"/> <polygon fill="#686D76" points="41 23.71 32 29 23 23.71 23 3 41 3 41 23.71"/> <polygon fill="#2F3645" points="37 3 37 26.06 32 29 27 26.06 27 3 37 3"/> <circle cx="32" cy="45.5" fill="#f9a215" r="11.39"/> <path d="M33.1,39.43l1.21,2.11a1.26,1.26,0,0,0,.85.6l2.43.48a1.22,1.22,0,0,1,.67,2l-1.67,1.78a1.22,1.22,0,0,0-.33,1l.29,2.4a1.26,1.26,0,0,1-1.78,1.27l-2.24-1a1.3,1.3,0,0,0-1.06,0l-2.24,1a1.26,1.26,0,0,1-1.78-1.27l.29-2.4a1.22,1.22,0,0,0-.33-1l-1.67-1.78a1.22,1.22,0,0,1,.67-2l2.43-.48a1.26,1.26,0,0,0,.85-.6l1.21-2.11A1.28,1.28,0,0,1,33.1,39.43Z" fill="#F4CE14"/> </g> </g> </g>
</svg>