<!DOCTYPE svg PUBLIC "-//W3C//DTD SVG 1.1//EN" "http://www.w3.org/Graphics/SVG/1.1/DTD/svg11.dtd">
<!-- Uploaded to: SVG Repo, www.svgrepo.com, Transformed by: SVG Repo Mixer Tools -->
<svg width="800px" height="800px" viewBox="-4.9 -4.9 58.80 58.80" fill="none" xmlns="http://www.w3.org/2000/svg">
<g id="SVGRepo_bgCarrier" stroke-width="0">
<path transform="translate(-4.9, -4.9), scale(3.675)" fill="#EEEDEB" d="M9.166.33a2.25 2.25 0 00-2.332 0l-5.25 3.182A2.25 2.25 0 00.5 5.436v5.128a2.25 2.25 0 001.084 1.924l5.25 3.182a2.25 2.25 0 002.332 0l5.25-3.182a2.25 2.25 0 001.084-1.924V5.436a2.25 2.25 0 00-1.084-1.924L9.166.33z" strokewidth="0"/>
</g>
<g id="SVGRepo_tracerCarrier" stroke-linecap="round" stroke-linejoin="round"/>
<g id="SVGRepo_iconCarrier"> <rect width="48" height="48" fill="white" fill-opacity="0.01"/> <path d="M48 1H0V49H48V1Z" fill="white" fill-opacity="0.01"/> <path d="M6 9.25564L24.0086 4L42 9.25564V20.0337C42 31.3622 34.7502 41.4194 24.0026 45.0005C13.2521 41.4195 6 31.36 6 20.0287V9.25564Z" fill="#F4CE14" stroke="#2F3645" stroke-width="4" stroke-linejoin="round"/> <path d="M15 23L22 30L34 18" stroke="white" stroke-width="4" stroke-linecap="round" stroke-linejoin="round"/> </g>
</svg>